<svg width="890" height="149" viewBox="0 0 890 149" fill="none" xmlns="http://www.w3.org/2000/svg">
<path d="M151.92 118C119.1 118 91.2577 94.2557 86.6492 63.3333H3M151.92 118C174.651 118 194.669 106.61 206.358 89.3333M151.92 118V10M206.358 89.3333C215.747 102.056 231.016 110.333 248.257 110.333C251.39 110.333 254.458 110.06 257.437 109.536L286.56 11.6667L319.2 74H285.88C281.373 74 277.72 77.5817 277.72 82C277.72 86.4183 281.373 90 285.88 90H343.34V120C343.34 126.259 348.516 131.333 354.9 131.333C361.284 131.333 366.46 126.259 366.46 120V116M206.358 89.3333V10M206.358 10H177.08M206.358 10H236.92M411 68H386.46C375.414 68 366.46 76.9543 366.46 88V116M411 68V3M411 68V114M366.46 116H449.42C454.302 116 458.26 112.12 458.26 107.333C458.26 102.547 454.302 98.6667 449.42 98.6667H445.48C439.957 98.6667 435.48 94.1895 435.48 88.6667V46C435.48 34.9543 444.434 26 455.48 26H473.62C484.666 26 493.62 34.9543 493.62 46V88.7184C493.62 94.2236 489.167 98.7503 483.662 98.6804C483.381 98.6768 483.18 98.6723 483.08 98.6667C478.198 98.6667 474.24 102.547 474.24 107.333C474.24 112.12 478.198 116 483.08 116H576.92M576.92 116C581.802 116 585.76 112.12 585.76 107.333C585.76 102.547 581.802 98.6667 576.92 98.6667H515.88C510.909 98.6667 506.88 94.6372 506.88 89.6667V59.3333V46C506.88 34.9543 515.834 26 526.88 26H556.92C567.966 26 576.92 34.9543 576.92 46V59.3333M576.92 116H586.429C591.031 116 594.762 112.269 594.762 107.667V25C594.762 23.3937 596.064 22.0915 597.671 22.0915H609.22C628.185 22.0915 643.56 37.1646 643.56 55.7582C643.56 67.5898 637.335 77.996 627.92 84L660.524 112.413C663.178 114.726 666.579 116 670.099 116C676.704 116 682.483 111.558 684.182 105.176L707.48 17.6667L739.78 84H706.8C701.918 84 697.96 87.8802 697.96 92.6667C697.96 97.4531 701.918 101.333 706.8 101.333H764.94L764.6 131.667C764.6 139.583 771.146 146 779.22 146C787.294 146 793.84 139.583 793.84 131.667V113H838.16C846.168 113 852.66 106.508 852.66 98.5C852.66 90.4919 846.168 84 838.16 84H799.22C788.174 84 779.22 75.0457 779.22 64V61.3333C779.22 50.2876 788.174 41.3333 799.22 41.3333H836.327C845.347 41.3333 852.66 48.646 852.66 57.6667C852.66 66.6873 859.973 74 868.993 74H887M576.92 59.3333V69.6667C576.92 80.7124 567.966 89.6667 556.92 89.6667H508.92M576.92 59.3333H508.92" stroke="white" stroke-width="6" stroke-linecap="round" stroke-linejoin="round"/>
</svg>
